<svg xmlns="http://www.w3.org/2000/svg" xmlns:xlink="http://www.w3.org/1999/xlink" width="19.585" height="20.04" viewBox="0 0 19.585 20.04">
  <defs>
    <clipPath id="clip-path">
      <path id="Path_440" data-name="Path 440" d="M21.357,10.2H12.02V14.07h5.374c-.5,2.459-2.6,3.871-5.374,3.871a5.921,5.921,0,0,1,0-11.842A5.793,5.793,0,0,1,15.709,7.42l2.915-2.915a10.014,10.014,0,1,0-6.6,17.535c5.01,0,9.565-3.644,9.565-10.02A8.313,8.313,0,0,0,21.357,10.2Z" transform="translate(-2 -2)"/>
    </clipPath>
  </defs>
  <g id="google" transform="translate(-2 -2)">
    <g id="Group_3495" data-name="Group 3495" transform="translate(2 2)" clip-path="url(#clip-path)">
      <path id="Path_439" data-name="Path 439" d="M0,22.842V11l7.743,5.921Z" transform="translate(-0.911 -6.901)" fill="#fbbc05"/>
    </g>
    <g id="Group_3496" data-name="Group 3496" transform="translate(2 2)" clip-path="url(#clip-path)">
      <path id="Path_441" data-name="Path 441" d="M0,5.01l7.743,5.921,3.188-2.778L21.862,6.376V0H0Z" transform="translate(-0.911 -0.911)" fill="#ea4335"/>
    </g>
    <g id="Group_3497" data-name="Group 3497" transform="translate(2 2)" clip-path="url(#clip-path)">
      <path id="Path_443" data-name="Path 443" d="M0,16.852,13.664,6.376l3.6.455L21.862,0V21.862H0Z" transform="translate(-0.911 -0.911)" fill="#34a853"/>
    </g>
    <g id="Group_3498" data-name="Group 3498" transform="translate(2 2)" clip-path="url(#clip-path)">
      <path id="Path_445" data-name="Path 445" d="M28.941,27.852,14.822,16.921,13,15.555,28.941,11Z" transform="translate(-7.99 -6.901)" fill="#4285f4"/>
    </g>
  </g>
</svg>
