<?xml version="1.0" encoding="utf-8"?>
<!-- Generator: Adobe Illustrator 23.0.1, SVG Export Plug-In . SVG Version: 6.00 Build 0)  -->
<svg version="1.1" id="Layer_1" xmlns="http://www.w3.org/2000/svg" xmlns:xlink="http://www.w3.org/1999/xlink" x="0px" y="0px"
	 viewBox="0 0 16 16" style="enable-background:new 0 0 16 16;" xml:space="preserve">
<g id="Guides">
</g>
<g>
	<g>
		<path d="M13.08,7.98H2.92C1.31,7.98,0,9.24,0,10.84v2.29C0,14.74,1.31,16,2.92,16h10.16c1.61,0,2.92-1.25,2.92-2.86v-2.29
			C16,9.24,14.69,7.98,13.08,7.98z M5.06,9.65H4.11v4.68H3.2V9.65H2.26v-0.8h2.8V9.65z M7.72,14.33H6.91v-0.44
			c-0.15,0.16-0.31,0.29-0.47,0.37c-0.16,0.09-0.32,0.13-0.47,0.13c-0.19,0-0.33-0.06-0.42-0.18c-0.09-0.12-0.14-0.3-0.14-0.54
			v-3.37h0.81v3.1c0,0.1,0.02,0.16,0.05,0.21c0.04,0.04,0.09,0.06,0.17,0.06c0.06,0,0.13-0.03,0.23-0.08
			c0.09-0.06,0.17-0.13,0.25-0.22v-3.07h0.81V14.33z M10.66,13.5c0,0.29-0.06,0.5-0.19,0.66c-0.13,0.15-0.31,0.23-0.55,0.23
			c-0.16,0-0.3-0.03-0.42-0.09c-0.12-0.06-0.24-0.15-0.35-0.27v0.31H8.33V8.86h0.82v1.76c0.11-0.12,0.23-0.22,0.35-0.28
			c0.12-0.06,0.25-0.1,0.37-0.1c0.26,0,0.45,0.08,0.59,0.26c0.14,0.17,0.2,0.42,0.2,0.75V13.5z M13.47,12.41h-1.55v0.76
			c0,0.21,0.03,0.36,0.08,0.44c0.05,0.08,0.15,0.12,0.27,0.12c0.13,0,0.23-0.04,0.28-0.1c0.05-0.07,0.08-0.22,0.08-0.46v-0.18h0.83
			v0.21c0,0.41-0.1,0.73-0.31,0.94c-0.2,0.21-0.5,0.31-0.91,0.31c-0.36,0-0.65-0.11-0.86-0.33c-0.21-0.22-0.31-0.53-0.31-0.92v-1.81
			c0-0.35,0.11-0.63,0.34-0.86c0.23-0.22,0.52-0.33,0.89-0.33c0.37,0,0.66,0.1,0.85,0.31c0.2,0.21,0.3,0.5,0.3,0.88V12.41z
			 M12.28,10.9c-0.13,0-0.22,0.04-0.28,0.11c-0.06,0.07-0.08,0.19-0.08,0.36v0.41h0.72v-0.41c0-0.17-0.03-0.29-0.08-0.36
			C12.49,10.93,12.4,10.9,12.28,10.9z M9.49,10.88c-0.06,0-0.12,0.01-0.17,0.04c-0.06,0.03-0.11,0.07-0.17,0.12v2.51
			c0.06,0.07,0.13,0.12,0.19,0.14c0.06,0.03,0.13,0.04,0.2,0.04c0.1,0,0.17-0.03,0.22-0.09c0.05-0.06,0.07-0.15,0.07-0.28V11.3
			c0-0.14-0.03-0.24-0.08-0.31C9.68,10.92,9.6,10.88,9.49,10.88z M3.53,6.89H4.7V4.03L6.06,0H4.87L4.15,2.76H4.07L3.31,0H2.13
			l1.4,4.16V6.89z M7.65,7.02c0.47,0,0.85-0.12,1.12-0.37c0.27-0.25,0.4-0.59,0.4-1.02V3c0-0.39-0.14-0.71-0.41-0.95
			C8.49,1.8,8.13,1.68,7.7,1.68c-0.47,0-0.85,0.12-1.13,0.35C6.29,2.26,6.15,2.58,6.15,2.97v2.64c0,0.43,0.14,0.77,0.41,1.03
			C6.83,6.89,7.2,7.02,7.65,7.02z M7.22,2.93c0-0.11,0.04-0.2,0.12-0.27c0.08-0.07,0.18-0.1,0.31-0.1c0.14,0,0.25,0.03,0.33,0.1
			c0.08,0.07,0.13,0.16,0.13,0.27V5.7c0,0.14-0.04,0.24-0.13,0.32C7.9,6.1,7.79,6.14,7.65,6.14c-0.14,0-0.24-0.04-0.32-0.11
			C7.26,5.95,7.22,5.84,7.22,5.7V2.93z M10.75,6.97c0.2,0,0.4-0.06,0.6-0.16c0.21-0.11,0.41-0.27,0.6-0.47v0.56H13V1.81h-1.04v3.86
			c-0.1,0.11-0.2,0.2-0.32,0.27c-0.12,0.07-0.22,0.11-0.29,0.11c-0.1,0-0.17-0.03-0.21-0.08c-0.04-0.05-0.07-0.14-0.07-0.26v-3.9
			h-1.04v4.25c0,0.3,0.06,0.53,0.18,0.68C10.33,6.89,10.51,6.97,10.75,6.97z"/>
	</g>
</g>
</svg>
