<svg xmlns="http://www.w3.org/2000/svg" xmlns:xlink="http://www.w3.org/1999/xlink" width="18.898" height="21.166" viewBox="0 0 18.898 21.166">
  <defs>
    <linearGradient id="linear-gradient" x1="0.187" y1="-0.15" x2="-0.143" y2="0.98" gradientUnits="objectBoundingBox">
      <stop offset="0" stop-color="#ff4d4d"/>
      <stop offset="1" stop-color="#c20000"/>
    </linearGradient>
  </defs>
  <g id="_027-petard" data-name="027-petard" transform="translate(-12 -19)">
    <g id="Group_3641" data-name="Group 3641" transform="translate(12 19)">
      <path id="Path_511" data-name="Path 511" d="M21.449,27.466c1.169,0,2.117-5.181,2.117-6.35a2.117,2.117,0,1,0-4.233,0C19.332,22.286,20.28,27.466,21.449,27.466Zm1.833,1.058c.584,1.012,5.545-.757,6.557-1.342a2.117,2.117,0,1,0-2.117-3.666C26.71,24.1,22.7,27.512,23.282,28.525Zm4.441,7.124c-1.012-.584-5.025-4-4.441-5.008s5.545.757,6.557,1.342a2.117,2.117,0,0,1-2.117,3.666ZM21.449,31.7c-1.169,0-2.117,5.181-2.117,6.35a2.117,2.117,0,1,0,4.233,0C23.566,36.88,22.618,31.7,21.449,31.7Zm-8.39.284c1.012-.585,5.973-2.354,6.557-1.342s-3.428,4.423-4.441,5.008a2.117,2.117,0,1,1-2.117-3.666Zm6.557-3.458c.584-1.012-3.428-4.423-4.441-5.008a2.117,2.117,0,1,0-2.117,3.666C14.071,27.767,19.031,29.537,19.616,28.525Z" transform="translate(-12 -19)" fill-rule="evenodd" fill="url(#linear-gradient)"/>
    </g>
  </g>
</svg>
