<svg xmlns="http://www.w3.org/2000/svg" xmlns:xlink="http://www.w3.org/1999/xlink" width="32.969" height="26.616" viewBox="0 0 32.969 26.616">
  <defs>
    <linearGradient id="linear-gradient" x1="0.737" y1="1.322" x2="0.471" y2="-0.441" gradientUnits="objectBoundingBox">
      <stop offset="0" stop-color="#d9f46d"/>
      <stop offset="1" stop-color="#00d179"/>
    </linearGradient>
    <linearGradient id="linear-gradient-2" x1="0.372" y1="-0.401" x2="0.399" y2="1.449" xlink:href="#linear-gradient"/>
    <linearGradient id="linear-gradient-3" x1="0.509" y1="1.314" x2="0.729" y2="-0.286" xlink:href="#linear-gradient"/>
    <linearGradient id="linear-gradient-4" x1="0.3" y1="-0.1" x2="0.812" y2="1.193" gradientUnits="objectBoundingBox">
      <stop offset="0.098" stop-color="#ff6060"/>
      <stop offset="1" stop-color="#fffce3"/>
    </linearGradient>
  </defs>
  <g id="_025-peach" data-name="025-peach" transform="translate(-2.566 -5)">
    <path id="Path_493" data-name="Path 493" d="M19.7,25.652c-5.135,4.31-12.556,2.575-15.74,1.1A1.028,1.028,0,0,1,3.5,25.315C9.069,15.163,26.828,19.673,19.7,25.652Z" transform="translate(0.182 3.237)" fill="url(#linear-gradient)"/>
    <path id="Path_494" data-name="Path 494" d="M14.8,19.112c7.2-3.359,15.174,1.014,18.228,3.625a1.053,1.053,0,0,1,.074,1.527c-9.312,9.989-28.191-.54-18.3-5.152Z" transform="translate(2.138 2.918)" fill="url(#linear-gradient-2)"/>
    <path id="Path_495" data-name="Path 495" d="M16.939,26.049C10.336,27.214,4.777,22,2.755,19.136a1.028,1.028,0,0,1,.319-1.48C12.973,11.647,26.1,24.433,16.939,26.049Z" transform="translate(0 2.503)" fill="url(#linear-gradient-3)"/>
    <path id="Path_496" data-name="Path 496" d="M28.914,14.307a11.65,11.65,0,0,1,.887,4.458h-.025q.025.3.025.613A7.359,7.359,0,0,1,18.543,25.62,7.973,7.973,0,0,1,6.5,18.766,11.65,11.65,0,0,1,13.692,8a9.307,9.307,0,0,0,2.4-2.1,2.8,2.8,0,0,1,4.108,0,9.307,9.307,0,0,0,2.4,2.1,11.651,11.651,0,0,1,6.305,6.305Z" transform="translate(0.89 0)" fill-rule="evenodd" fill="url(#linear-gradient-4)"/>
  </g>
</svg>
