<svg xmlns="http://www.w3.org/2000/svg" xmlns:xlink="http://www.w3.org/1999/xlink" width="124.211" height="110.483" viewBox="0 0 124.211 110.483">
  <defs>
    <clipPath id="clip-path">
      <rect id="Rectangle_1406" data-name="Rectangle 1406" width="19.38" height="21.968" transform="translate(0 0)" fill="none"/>
    </clipPath>
    <linearGradient id="linear-gradient" x1="0.5" x2="0.5" y2="1" gradientUnits="objectBoundingBox">
      <stop offset="0" stop-color="#ffef7a"/>
      <stop offset="1" stop-color="#fa8b05"/>
    </linearGradient>
    <clipPath id="clip-path-2">
      <rect id="Rectangle_1406-2" data-name="Rectangle 1406" width="14.459" height="16.39" transform="translate(0 0)" fill="none"/>
    </clipPath>
    <linearGradient id="linear-gradient-3" x1="0.917" y1="1" x2="-0.105" y2="0.259" gradientUnits="objectBoundingBox">
      <stop offset="0" stop-color="#ffc6b5"/>
      <stop offset="1" stop-color="#fff6de"/>
    </linearGradient>
    <linearGradient id="linear-gradient-4" x1="0.188" y1="-0.187" x2="1.03" y2="1.137" gradientUnits="objectBoundingBox">
      <stop offset="0" stop-color="#ffc960"/>
      <stop offset="1" stop-color="#ff1f1f"/>
    </linearGradient>
    <linearGradient id="linear-gradient-5" x1="0.083" y1="1" x2="1.105" y2="0.259" xlink:href="#linear-gradient-3"/>
    <linearGradient id="linear-gradient-6" x1="0.917" y1="1" x2="-0.149" y2="0.32" xlink:href="#linear-gradient-3"/>
    <linearGradient id="linear-gradient-7" y1="-0.286" x2="1.176" y2="0.434" gradientUnits="objectBoundingBox">
      <stop offset="0" stop-color="#4d626f"/>
      <stop offset="1" stop-color="#1e3e45"/>
    </linearGradient>
    <linearGradient id="linear-gradient-8" x1="1" y1="-0.286" x2="-0.176" y2="0.434" xlink:href="#linear-gradient-7"/>
    <linearGradient id="linear-gradient-9" x1="0.187" y1="-0.3" x2="-0.049" y2="2.005" gradientUnits="objectBoundingBox">
      <stop offset="0" stop-color="#ffa776"/>
      <stop offset="1" stop-color="red"/>
    </linearGradient>
    <linearGradient id="linear-gradient-10" x1="0.182" y1="-0.288" x2="0.16" y2="1.096" xlink:href="#linear-gradient-9"/>
    <linearGradient id="linear-gradient-11" x1="0.175" y1="-0.187" x2="0.513" y2="1.467" xlink:href="#linear-gradient-4"/>
    <linearGradient id="linear-gradient-12" x1="0" y1="-0.286" x2="0.387" y2="5.612" xlink:href="#linear-gradient-7"/>
    <linearGradient id="linear-gradient-13" x1="0.319" y1="-0.051" x2="0.338" y2="1.181" gradientUnits="objectBoundingBox">
      <stop offset="0" stop-color="#ff2525"/>
      <stop offset="1" stop-color="#c00000"/>
    </linearGradient>
    <linearGradient id="linear-gradient-14" x1="0.916" y1="1" x2="0.415" y2="-0.457" gradientUnits="objectBoundingBox">
      <stop offset="0" stop-color="#ff9574"/>
      <stop offset="1" stop-color="#ffa285"/>
    </linearGradient>
    <linearGradient id="linear-gradient-15" x1="0.916" x2="-0.105" y2="0.259" xlink:href="#linear-gradient-14"/>
  </defs>
  <g id="Group_3539" data-name="Group 3539" transform="translate(-148.403 -268.517)">
    <g id="Group_3278" data-name="Group 3278" transform="translate(240.423 268.517) rotate(17)">
      <g id="Group_3277" data-name="Group 3277" transform="translate(0 0)" clip-path="url(#clip-path)">
        <path id="Path_283" data-name="Path 283" d="M14.153,6.926,19,10.352a.721.721,0,0,1,0,1.265l-4.852,3.426a.721.721,0,0,0-.287.287L10.44,21.593a.721.721,0,0,1-1.265,0L5.749,15.329a.721.721,0,0,0-.287-.287L.375,11.617a.721.721,0,0,1,0-1.265L5.463,6.926a.721.721,0,0,0,.287-.287L9.175.375a.721.721,0,0,1,1.265,0l3.426,6.264a.721.721,0,0,0,.287.287" transform="translate(0 0)" fill="url(#linear-gradient)"/>
      </g>
    </g>
    <g id="Group_3279" data-name="Group 3279" transform="matrix(0.574, 0.819, -0.819, 0.574, 264.32, 291.474)">
      <g id="Group_3277-2" data-name="Group 3277" transform="translate(0 0)" clip-path="url(#clip-path-2)">
        <path id="Path_283-2" data-name="Path 283" d="M10.559,5.167l3.62,2.556a.538.538,0,0,1,0,.944l-3.62,2.556a.538.538,0,0,0-.214.214L7.789,16.11a.538.538,0,0,1-.944,0L4.289,11.437a.538.538,0,0,0-.214-.214L.28,8.667a.538.538,0,0,1,0-.944l3.8-2.556a.538.538,0,0,0,.214-.214L6.845.28a.538.538,0,0,1,.944,0l2.556,4.673a.538.538,0,0,0,.214.214" transform="translate(0 0)" fill="url(#linear-gradient)"/>
      </g>
    </g>
    <g id="_004-boy" data-name="004-boy" transform="translate(143.467 265.517)">
      <path id="Path_452" data-name="Path 452" d="M4.936,24.666a7.836,7.836,0,0,1,7.836-7.836H28.443V40.337H20.607A15.671,15.671,0,0,1,4.936,24.666Z" transform="translate(0 44.938)" fill="url(#linear-gradient-3)"/>
      <circle id="Ellipse_122" data-name="Ellipse 122" cx="7.054" cy="7.054" r="7.054" transform="translate(44.896 3)" fill="url(#linear-gradient-4)"/>
      <path id="Path_453" data-name="Path 453" d="M45.039,24.666A7.835,7.835,0,0,0,37.2,16.83H21.532V40.337h7.836A15.671,15.671,0,0,0,45.039,24.666Z" transform="translate(53.925 44.938)" fill="url(#linear-gradient-5)"/>
      <path id="Path_454" data-name="Path 454" d="M78.223,48.909c0,20.772-15.787,37.611-35.261,37.611S7.7,69.681,7.7,48.909,9.906,11.3,42.963,11.3,78.223,28.137,78.223,48.909Z" transform="translate(8.988 26.963)" fill="url(#linear-gradient-6)"/>
      <path id="Path_455" data-name="Path 455" d="M26.86,14.617c0,3.761-10.939,12.252-19.99,9.4l.552-9.4Z" transform="translate(6.284 37.747)" fill="url(#linear-gradient-7)"/>
      <path id="Path_456" data-name="Path 456" d="M20.426,14.617c0,3.761,10.939,12.252,19.99,9.4l-.755-9.4Z" transform="translate(50.331 37.747)" fill="url(#linear-gradient-8)"/>
      <path id="Path_457" data-name="Path 457" d="M82.371,39.92A34.181,34.181,0,0,0,71.355,14.987a39.407,39.407,0,0,0-53.19,0A34.18,34.18,0,0,0,7.149,39.92H82.371Z" transform="translate(7.19 5.392)" fill="url(#linear-gradient-9)"/>
      <path id="Path_458" data-name="Path 458" d="M6.9,21.823a10.2,10.2,0,0,1,8.6-8.683A217.639,217.639,0,0,1,79,13.009l.872.127a10.483,10.483,0,0,1,8.874,8.928l.6,4.291a4.239,4.239,0,0,1-4.774,4.784L83.587,31a264.067,264.067,0,0,0-72.673.133,4.126,4.126,0,0,1-4.662-4.655Z" transform="translate(4.141 25.167)" fill="url(#linear-gradient-10)"/>
      <path id="Path_459" data-name="Path 459" d="M42.926,21H17.219c-3.462,0-6.238,2.831-5.4,6.19,1.567,6.272,5.957,15.057,18.252,15.057S46.757,33.462,48.324,27.19c.839-3.359-1.937-6.19-5.4-6.19Z" transform="translate(21.878 58.488)" fill="url(#linear-gradient-11)"/>
      <g id="Group_3538" data-name="Group 3538" transform="translate(28.443 68.865)">
        <path id="Path_460" data-name="Path 460" d="M13.688,22.785c-1.531.4-3.22.832-3.22-.358,0-1.741,2.893-3.928,5.063-3.928s4.34,1.571,4.34,3.142c0,1.871-1.494,1.458-2.872,1.078a6.213,6.213,0,0,0-1.468-.293,8.818,8.818,0,0,0-1.843.358Zm40.574,0c1.531.4,3.22.832,3.22-.358,0-1.741-2.893-3.928-5.063-3.928s-4.34,1.571-4.34,3.142c0,1.871,1.494,1.458,2.872,1.078a6.213,6.213,0,0,1,1.468-.293,8.818,8.818,0,0,1,1.843.358Z" transform="translate(-10.468 -18.5)" fill-rule="evenodd" fill="url(#linear-gradient-12)"/>
        <path id="Path_461" data-name="Path 461" d="M12.5,21.334A6.142,6.142,0,0,1,14.512,21H40.219a6.136,6.136,0,0,1,2.011.335,6.375,6.375,0,0,1-6.366,6.039h-17a6.373,6.373,0,0,1-6.365-6.04Z" transform="translate(-3.859 -10.377)" fill="#fafafa" fill-rule="evenodd"/>
        <path id="Path_462" data-name="Path 462" d="M37.332,28.344C35.636,25.819,30.865,24,25.243,24S14.85,25.819,13.155,28.345c2.783,2.447,6.667,4.154,12.088,4.154s9.305-1.707,12.089-4.155Z" transform="translate(-1.736 -0.629)" fill-rule="evenodd" fill="url(#linear-gradient-13)"/>
      </g>
      <path id="Path_463" data-name="Path 463" d="M15,21.833A2.833,2.833,0,0,1,17.833,19h2.833A2.833,2.833,0,0,1,23.5,21.833a1.416,1.416,0,0,1-1.416,1.416H16.416A1.416,1.416,0,0,1,15,21.833Z" transform="translate(32.701 51.989)" fill="url(#linear-gradient-14)"/>
      <circle id="Ellipse_123" data-name="Ellipse 123" cx="4.249" cy="4.249" r="4.249" transform="translate(22.205 79.488)" fill="url(#linear-gradient-15)"/>
      <circle id="Ellipse_124" data-name="Ellipse 124" cx="4.249" cy="4.249" r="4.249" transform="translate(73.197 79.488)" fill="url(#linear-gradient-15)"/>
    </g>
  </g>
</svg>
